Grateful Dead
1969-01-18
Playboy After Dark
CBS Studios in West Hollywood, CA

Source: DVD audio from U.K. Mutt's release (VHS master tape of a 1992 rebroadcast> audio processed in Soundforge 6.0, 48kHz, 1536kbps wav, mono) extracted to 44.1kHz, 1411kbps wav with DVD Audio Extractor> tracks cut with GoldWave> compressed to flac with EasyFlac level 5. No SBE's verified with shntool. No other manipulation of audio done.

1. Hefner interviews Garcia
2. Mountains of the Moon
3. St. Stephen (fades out)
4. Closing / Turn On Your Lovelight (segment)

    length     expanded size   cdr  WAVE problems filename
     1:57.23       20692940    ---   --   -----   gd69-01-18t01.wav
     3:54.39       41369372    ---   --   -----   gd69-01-18t02.wav
     4:04.57       43175708    ---   --   -----   gd69-01-18t03.wav
     1:22.70       14629484    ---   --   -----   gd69-01-18t04.wav
    11:19.39      119867504 B                     (totals for 4 files, 1.0000 overall compression ratio)
